<svg width="600" height="400" viewBox="0 0 600 400" fill="none" xmlns="http://www.w3.org/2000/svg">
  <rect width="600" height="400" rx="16" fill="#18181b"/>
  <rect x="1" y="1" width="598" height="398" rx="15" stroke="#3f3f46" stroke-width="2"/>
  <rect x="0" y="0" width="600" height="36" rx="16" fill="#27272a"/>
  <rect x="0" y="16" width="600" height="20" fill="#27272a"/>
  <circle cx="20" cy="18" r="5" fill="#ef4444"/>
  <circle cx="36" cy="18" r="5" fill="#eab308"/>
  <circle cx="52" cy="18" r="5" fill="#22c55e"/>
  <rect x="24" y="56" width="160" height="24" rx="6" fill="#27272a"/>
  <rect x="24" y="92" width="120" height="16" rx="4" fill="#3f3f46"/>
  <rect x="24" y="116" width="140" height="16" rx="4" fill="#3f3f46"/>
  <rect x="24" y="156" width="552" height="1" fill="#3f3f46"/>
  <rect x="24" y="176" width="260" height="40" rx="8" fill="#27272a"/>
  <rect x="296" y="176" width="280" height="40" rx="8" fill="#27272a"/>
  <rect x="24" y="228" width="260" height="40" rx="8" fill="#27272a"/>
  <rect x="296" y="228" width="280" height="40" rx="8" fill="#27272a"/>
  <rect x="24" y="280" width="260" height="40" rx="8" fill="#27272a"/>
  <rect x="296" y="280" width="280" height="40" rx="8" fill="#27272a"/>
  <rect x="24" y="340" width="552" height="36" rx="8" fill="#7c3aed" fill-opacity="0.2"/>
  <rect x="200" y="350" width="200" height="16" rx="4" fill="#7c3aed" fill-opacity="0.4"/>
</svg>
